<svg width="40" height="40" viewBox="0 0 40 40" fill="none" xmlns="http://www.w3.org/2000/svg">
<path d="M10.8333 12.9286H29.1667H10.8333Z" fill="#2CBDC7"/>
<path fill-rule="evenodd" clip-rule="evenodd" d="M17.9142 10.5714C17.8598 10.5713 17.8058 10.5813 17.7555 10.6009C17.7052 10.6204 17.6595 10.6492 17.621 10.6855C17.5825 10.7218 17.552 10.7649 17.5312 10.8124C17.5104 10.8598 17.4998 10.9107 17.5 10.962L17.5 10.9643V12.1429H22.5V10.9643L22.5 10.962C22.5002 10.9107 22.4896 10.8598 22.4688 10.8124C22.448 10.7649 22.4175 10.7218 22.379 10.6855C22.3405 10.6492 22.2948 10.6204 22.2445 10.6009C22.1942 10.5813 22.1402 10.5713 22.0858 10.5714L22.0833 10.5714H17.9167L17.9142 10.5714ZM13.387 13.7143L14.3734 28.5938C14.3736 28.5967 14.3737 28.5996 14.3739 28.6025C14.4027 29.1313 14.7751 29.4286 15.2083 29.4286H24.7917C25.2207 29.4286 25.5914 29.138 25.6266 28.5949L26.613 13.7143H13.387ZM27.4923 12.1429H24.1667V10.9655C24.1673 10.7074 24.1139 10.4517 24.0095 10.2131C23.905 9.97418 23.7514 9.75709 23.5575 9.57432C23.3637 9.39155 23.1334 9.24672 22.88 9.14816C22.627 9.04977 22.3559 8.99942 22.0823 9.00001H17.9177C17.6441 8.99942 17.373 9.04977 17.12 9.14816C16.8665 9.24673 16.6363 9.39155 16.4425 9.57432C16.2486 9.75708 16.095 9.97418 15.9905 10.2131C15.8861 10.4517 15.8327 10.7073 15.8333 10.9653V12.1429H12.5077C12.5031 12.1428 12.4985 12.1428 12.4939 12.1429H10.8333C10.3731 12.1429 10 12.4946 10 12.9286C10 13.3625 10.3731 13.7143 10.8333 13.7143H11.7171L12.7097 28.6879C12.7821 29.9729 13.81 31 15.2083 31H24.7917C26.2033 31 27.2075 29.9638 27.2901 28.6909L27.2901 28.6908L28.2829 13.7143H29.1667C29.6269 13.7143 30 13.3625 30 12.9286C30 12.4946 29.6269 12.1429 29.1667 12.1429H27.5061C27.5015 12.1428 27.4969 12.1428 27.4923 12.1429ZM16.2203 15.2862C16.6802 15.2707 17.0664 15.6097 17.0828 16.0434L17.4995 27.0434C17.5159 27.477 17.1564 27.8412 16.6964 27.8566C16.2365 27.8721 15.8503 27.5331 15.8339 27.0995L15.4172 16.0995C15.4008 15.6658 15.7603 15.3017 16.2203 15.2862ZM23.7797 15.2862C24.2397 15.3017 24.5992 15.6658 24.5828 16.0995L24.1661 27.0995C24.1497 27.5331 23.7635 27.8721 23.3036 27.8566C22.8436 27.8412 22.4841 27.477 22.5005 27.0434L22.9172 16.0434C22.9336 15.6097 23.3198 15.2707 23.7797 15.2862ZM20 15.2857C20.4602 15.2857 20.8333 15.6375 20.8333 16.0714V27.0714C20.8333 27.5054 20.4602 27.8571 20 27.8571C19.5398 27.8571 19.1667 27.5054 19.1667 27.0714V16.0714C19.1667 15.6375 19.5398 15.2857 20 15.2857Z" fill="#2CBDC7"/>
</svg>
