<svg width="40" height="40" viewBox="0 0 40 40" fill="none" xmlns="http://www.w3.org/2000/svg">
<circle cx="20" cy="20" r="20" fill="#114A4D"/>
<path d="M28 16.94C27.9896 16.8481 27.9695 16.7576 27.94 16.67V16.58C27.8919 16.4772 27.8278 16.3827 27.75 16.3L21.75 10.3C21.6673 10.2222 21.5728 10.1581 21.47 10.11H21.38L21.06 10H15C14.2044 10 13.4413 10.3161 12.8787 10.8787C12.3161 11.4413 12 12.2044 12 13V27C12 27.7957 12.3161 28.5587 12.8787 29.1213C13.4413 29.6839 14.2044 30 15 30H25C25.7956 30 26.5587 29.6839 27.1213 29.1213C27.6839 28.5587 28 27.7957 28 27V16.94ZM22 13.41L24.59 16H22V13.41ZM26 27C26 27.2652 25.8946 27.5196 25.7071 27.7071C25.5196 27.8946 25.2652 28 25 28H15C14.7348 28 14.4804 27.8946 14.2929 27.7071C14.1054 27.5196 14 27.2652 14 27V13C14 12.7348 14.1054 12.4804 14.2929 12.2929C14.4804 12.1054 14.7348 12 15 12H20V17C20 17.2652 20.1054 17.5196 20.2929 17.7071C20.4804 17.8946 20.7348 18 21 18H26V27Z" fill="#31D2DD"/>
</svg>
