<svg width="8" height="12" viewBox="0 0 8 12" fill="none" xmlns="http://www.w3.org/2000/svg">
<path d="M0.340956 5.04536L5.82296 0.249357C6.46896 -0.316643 7.48096 0.143357 7.48096 1.00236L7.48096 10.5944C7.48112 10.7866 7.42587 10.9748 7.32182 11.1365C7.21776 11.2981 7.06932 11.4264 6.89426 11.5058C6.71921 11.5853 6.52496 11.6126 6.33478 11.5845C6.1446 11.5564 5.96655 11.474 5.82196 11.3474L0.341957 6.55136C0.234547 6.4575 0.148461 6.34174 0.0894771 6.21187C0.0304933 6.08199 -2.3365e-05 5.941 -2.3365e-05 5.79836C-2.3365e-05 5.65571 0.0304933 5.51472 0.0894771 5.38485C0.148461 5.25497 0.234547 5.13922 0.341957 5.04536H0.340956Z" fill="white"/>
</svg>
