<svg width="8" height="12" viewBox="0 0 8 12" fill="none" xmlns="http://www.w3.org/2000/svg">
<path d="M7.14 6.75301L1.658 11.549C1.012 12.115 3.67706e-07 11.655 3.67706e-07 10.796V1.20401C-0.000164459 1.01177 0.0550878 0.823552 0.159141 0.661902C0.263194 0.500251 0.411637 0.37202 0.586693 0.292564C0.761749 0.213108 0.955998 0.185796 1.14618 0.213898C1.33636 0.242 1.51441 0.324324 1.659 0.451013L7.139 5.24701C7.24641 5.34087 7.3325 5.45663 7.39148 5.5865C7.45046 5.71638 7.48098 5.85737 7.48098 6.00001C7.48098 6.14266 7.45046 6.28365 7.39148 6.41352C7.3325 6.5434 7.24641 6.65915 7.139 6.75301H7.14Z" fill="white"/>
</svg>
